<svg xmlns="http://www.w3.org/2000/svg" xmlns:xlink="http://www.w3.org/1999/xlink" width="2000" zoomAndPan="magnify" viewBox="0 0 1500 1499.999933" height="2000" preserveAspectRatio="xMidYMid meet" version="1.0"><defs><clipPath id="2307a18db1"><path d="M 213.082031 930.605469 L 712.828125 930.605469 L 712.828125 1414.492188 L 213.082031 1414.492188 Z M 213.082031 930.605469 " clip-rule="nonzero"/></clipPath><clipPath id="c0d9954f1a"><path d="M 0.0820312 0.605469 L 499.828125 0.605469 L 499.828125 484.492188 L 0.0820312 484.492188 Z M 0.0820312 0.605469 " clip-rule="nonzero"/></clipPath><clipPath id="c0f5b08bbb"><rect x="0" width="500" y="0" height="485"/></clipPath><clipPath id="22147d0331"><path d="M 240.523438 85.496094 L 1287 85.496094 L 1287 930.617188 L 240.523438 930.617188 Z M 240.523438 85.496094 " clip-rule="nonzero"/></clipPath><clipPath id="1ba218c33e"><path d="M 808.195312 85.496094 L 240.523438 85.496094 L 719.246094 930.617188 L 1286.917969 930.617188 Z M 808.195312 85.496094 " clip-rule="nonzero"/></clipPath><clipPath id="3c8e2bfe5f"><path d="M 0.523438 0.496094 L 1047 0.496094 L 1047 845.617188 L 0.523438 845.617188 Z M 0.523438 0.496094 " clip-rule="nonzero"/></clipPath><clipPath id="ce2547aff6"><path d="M 568.195312 0.496094 L 0.523438 0.496094 L 479.246094 845.617188 L 1046.917969 845.617188 Z M 568.195312 0.496094 " clip-rule="nonzero"/></clipPath><clipPath id="b60dea804f"><rect x="0" width="1047" y="0" height="846"/></clipPath></defs><g clip-path="url(#2307a18db1)"><g transform="matrix(1, 0, 0, 1, 213, 930)"><g clip-path="url(#c0f5b08bbb)"><g clip-path="url(#c0d9954f1a)"><path fill="#f4f4f4" d="M 0.0820312 484.492188 L 0.0820312 0.605469 L 499.09375 0.605469 L 499.09375 484.492188 Z M 0.0820312 484.492188 " fill-opacity="1" fill-rule="nonzero"/></g></g></g></g><g clip-path="url(#22147d0331)"><g clip-path="url(#1ba218c33e)"><g transform="matrix(1, 0, 0, 1, 240, 85)"><g clip-path="url(#b60dea804f)"><g clip-path="url(#3c8e2bfe5f)"><g clip-path="url(#ce2547aff6)"><path fill="#f4f4f4" d="M 0.523438 0.496094 L 1047.019531 0.496094 L 1047.019531 845.617188 L 0.523438 845.617188 Z M 0.523438 0.496094 " fill-opacity="1" fill-rule="nonzero"/></g></g></g></g></g></g></svg>