<svg xmlns="http://www.w3.org/2000/svg" xmlns:xlink="http://www.w3.org/1999/xlink" width="2000" zoomAndPan="magnify" viewBox="0 0 1500 1499.999933" height="2000" preserveAspectRatio="xMidYMid meet" version="1.0"><defs><g/><clipPath id="5ee861b78b"><path d="M 867 131 L 1073 131 L 1073 395 L 867 395 Z M 867 131 " clip-rule="nonzero"/></clipPath><clipPath id="b5136e1286"><rect x="0" width="1073" y="0" height="504"/></clipPath><clipPath id="7ddd127ca9"><path d="M 0.246094 192.597656 L 113.597656 192.597656 L 113.597656 302.351562 L 0.246094 302.351562 Z M 0.246094 192.597656 " clip-rule="nonzero"/></clipPath><clipPath id="4a22b30099"><path d="M 0.246094 0.597656 L 113.597656 0.597656 L 113.597656 110.351562 L 0.246094 110.351562 Z M 0.246094 0.597656 " clip-rule="nonzero"/></clipPath><clipPath id="4762b5cd5e"><rect x="0" width="114" y="0" height="111"/></clipPath><clipPath id="1f07585dff"><path d="M 6.46875 0.910156 L 243.832031 0.910156 L 243.832031 192.597656 L 6.46875 192.597656 Z M 6.46875 0.910156 " clip-rule="nonzero"/></clipPath><clipPath id="4b1637cf33"><path d="M 135.226562 0.910156 L 6.46875 0.910156 L 115.050781 192.597656 L 243.808594 192.597656 Z M 135.226562 0.910156 " clip-rule="nonzero"/></clipPath><clipPath id="3c5fa52de5"><path d="M 0.46875 0.910156 L 237.832031 0.910156 L 237.832031 192.597656 L 0.46875 192.597656 Z M 0.46875 0.910156 " clip-rule="nonzero"/></clipPath><clipPath id="a05c17ccc0"><path d="M 129.226562 0.910156 L 0.46875 0.910156 L 109.050781 192.597656 L 237.808594 192.597656 Z M 129.226562 0.910156 " clip-rule="nonzero"/></clipPath><clipPath id="29136dcdfc"><rect x="0" width="238" y="0" height="193"/></clipPath><clipPath id="ee4bccbff6"><rect x="0" width="245" y="0" height="303"/></clipPath></defs><g transform="matrix(1, 0, 0, 1, 427, 498)"><g clip-path="url(#b5136e1286)"><g fill="#000000" fill-opacity="1"><g transform="translate(1.148424, 394.549068)"><g><path d="M 246.03125 -263.515625 L 236.84375 -219.71875 L 160.59375 -219.71875 L 114.09375 0 L 62.1875 0 L 108.6875 -219.71875 L 32.796875 -219.71875 L 42 -263.515625 Z M 246.03125 -263.515625 "/></g></g></g><g fill="#000000" fill-opacity="1"><g transform="translate(189.337191, 394.549068)"><g><path d="M 13.15625 0 L 69.03125 -263.515625 L 169.4375 -263.515625 C 184.8125 -263.515625 198.023438 -261.171875 209.078125 -256.484375 C 220.140625 -251.796875 228.550781 -245.035156 234.3125 -236.203125 C 240.082031 -227.378906 242.96875 -216.835938 242.96875 -204.578125 C 242.96875 -198.691406 242.25 -192.382812 240.8125 -185.65625 C 237.6875 -170.632812 230.625 -158.078125 219.625 -147.984375 C 208.632812 -137.890625 195.328125 -131.703125 179.703125 -129.421875 L 178.796875 -125.625 C 186.609375 -121.90625 192.40625 -116.53125 196.1875 -109.5 C 199.976562 -102.46875 202.65625 -92.164062 204.21875 -78.59375 L 207.46875 -51.375 L 213.953125 0 L 161.5 0 L 160.59375 -7.390625 C 159.632812 -15.316406 158.460938 -25.226562 157.078125 -37.125 C 155.703125 -49.019531 154.171875 -62.898438 152.484375 -78.765625 C 151.523438 -86.691406 149.84375 -92.847656 147.4375 -97.234375 C 145.03125 -101.628906 141.484375 -104.816406 136.796875 -106.796875 C 132.117188 -108.773438 125.691406 -109.765625 117.515625 -109.765625 L 88.5 -109.765625 L 65.25 0 Z M 144.734375 -151.046875 C 157.953125 -151.046875 168.164062 -153.867188 175.375 -159.515625 C 182.582031 -165.160156 187.390625 -173.632812 189.796875 -184.9375 C 190.640625 -188.65625 191.0625 -192.257812 191.0625 -195.75 C 191.0625 -204.632812 188.265625 -211.269531 182.671875 -215.65625 C 177.085938 -220.039062 169.128906 -222.234375 158.796875 -222.234375 L 112.46875 -222.234375 L 97.328125 -151.046875 Z M 144.734375 -151.046875 "/></g></g></g><g fill="#000000" fill-opacity="1"><g transform="translate(405.464148, 394.549068)"><g><path d="M 231.796875 0 L 178.625 0 L 171.59375 -60.75 L 71.375 -60.75 L 39.109375 0 L -17.125 0 L 129.0625 -263.515625 L 196.109375 -263.515625 Z M 150.140625 -208.546875 L 94.8125 -104.546875 L 166.546875 -104.546875 L 154.65625 -208.546875 Z M 150.140625 -208.546875 "/></g></g></g><g fill="#000000" fill-opacity="1"><g transform="translate(626.097239, 394.549068)"><g><path d="M 125.625 3.78125 C 105.675781 3.78125 88.070312 -0.03125 72.8125 -7.65625 C 57.550781 -15.289062 45.625 -26.644531 37.03125 -41.71875 C 28.445312 -56.800781 24.15625 -75.160156 24.15625 -96.796875 C 24.15625 -109.285156 25.65625 -122.679688 28.65625 -136.984375 C 34.664062 -165.347656 44.671875 -189.257812 58.671875 -208.71875 C 72.671875 -228.1875 89.910156 -242.816406 110.390625 -252.609375 C 130.878906 -262.398438 153.984375 -267.296875 179.703125 -267.296875 C 204.210938 -267.296875 224.15625 -262.160156 239.53125 -251.890625 C 254.914062 -241.617188 264.894531 -226.6875 269.46875 -207.09375 L 228.546875 -185.109375 L 224.21875 -185.296875 C 220.257812 -197.910156 213.984375 -207.25 205.390625 -213.3125 C 196.796875 -219.382812 185.050781 -222.421875 170.15625 -222.421875 C 148.28125 -222.421875 129.679688 -215.269531 114.359375 -200.96875 C 99.046875 -186.675781 88.203125 -164.328125 81.828125 -133.921875 C 78.941406 -120.460938 77.5 -108.566406 77.5 -98.234375 C 77.5 -78.523438 82.242188 -64.101562 91.734375 -54.96875 C 101.234375 -45.84375 114.515625 -41.28125 131.578125 -41.28125 C 146.117188 -41.28125 159.1875 -45.363281 170.78125 -53.53125 C 182.375 -61.707031 192.738281 -74.328125 201.875 -91.390625 L 206.375 -91.390625 L 243.875 -71.203125 C 236.175781 -53.296875 226.921875 -38.875 216.109375 -27.9375 C 205.296875 -17 192.53125 -8.976562 177.8125 -3.875 C 163.09375 1.226562 145.695312 3.78125 125.625 3.78125 Z M 125.625 3.78125 "/></g></g></g><g clip-path="url(#5ee861b78b)"><g fill="#000000" fill-opacity="1"><g transform="translate(854.300728, 394.549068)"><g><path d="M 244.046875 -263.515625 L 234.859375 -219.890625 L 111.9375 -219.890625 L 98.78125 -158.25 L 206.203125 -158.25 L 197.1875 -115.71875 L 89.765625 -115.71875 L 74.4375 -43.625 L 200.25 -43.625 L 191.0625 0 L 13.15625 0 L 69.03125 -263.515625 Z M 244.046875 -263.515625 "/></g></g></g></g></g></g><g transform="matrix(1, 0, 0, 1, 7, 606)"><g clip-path="url(#ee4bccbff6)"><g clip-path="url(#7ddd127ca9)"><g transform="matrix(1, 0, 0, 1, 0.000000000000000888, 192)"><g clip-path="url(#4762b5cd5e)"><g clip-path="url(#4a22b30099)"><path fill="#000000" d="M 0.246094 110.351562 L 0.246094 0.597656 L 113.429688 0.597656 L 113.429688 110.351562 Z M 0.246094 110.351562 " fill-opacity="1" fill-rule="nonzero"/></g></g></g></g><g clip-path="url(#1f07585dff)"><g clip-path="url(#4b1637cf33)"><g transform="matrix(1, 0, 0, 1, 6, 0.000000000000113687)"><g clip-path="url(#29136dcdfc)"><g clip-path="url(#3c5fa52de5)"><g clip-path="url(#a05c17ccc0)"><path fill="#000000" d="M 0.46875 0.910156 L 237.832031 0.910156 L 237.832031 192.597656 L 0.46875 192.597656 Z M 0.46875 0.910156 " fill-opacity="1" fill-rule="nonzero"/></g></g></g></g></g></g></g></g><path stroke-linecap="butt" transform="matrix(0, -0.75, 0.75, 0, 351.375706, 908.353078)" fill="none" stroke-linejoin="miter" d="M 0.00202035 14.49906 L 401.92393 14.49906 " stroke="#000000" stroke-width="29" stroke-opacity="1" stroke-miterlimit="4"/></svg>