<svg xmlns="http://www.w3.org/2000/svg" xmlns:xlink="http://www.w3.org/1999/xlink" width="2000" zoomAndPan="magnify" viewBox="0 0 1500 1499.999933" height="2000" preserveAspectRatio="xMidYMid meet" version="1.0"><defs><g/><clipPath id="ceb56767a8"><path d="M 0.96875 88.117188 L 52.554688 88.117188 L 52.554688 138.066406 L 0.96875 138.066406 Z M 0.96875 88.117188 " clip-rule="nonzero"/></clipPath><clipPath id="280a48aed6"><path d="M 0.96875 0.117188 L 52.554688 0.117188 L 52.554688 50.066406 L 0.96875 50.066406 Z M 0.96875 0.117188 " clip-rule="nonzero"/></clipPath><clipPath id="5bd3263d4a"><rect x="0" width="53" y="0" height="51"/></clipPath><clipPath id="387e93292e"><path d="M 3.800781 0.878906 L 111.828125 0.878906 L 111.828125 88.117188 L 3.800781 88.117188 Z M 3.800781 0.878906 " clip-rule="nonzero"/></clipPath><clipPath id="7bfb35b46e"><path d="M 62.398438 0.878906 L 3.800781 0.878906 L 53.21875 88.117188 L 111.816406 88.117188 Z M 62.398438 0.878906 " clip-rule="nonzero"/></clipPath><clipPath id="a593aac951"><path d="M 0.800781 0.878906 L 108.828125 0.878906 L 108.828125 88.117188 L 0.800781 88.117188 Z M 0.800781 0.878906 " clip-rule="nonzero"/></clipPath><clipPath id="fa3788e395"><path d="M 59.398438 0.878906 L 0.800781 0.878906 L 50.21875 88.117188 L 108.816406 88.117188 Z M 59.398438 0.878906 " clip-rule="nonzero"/></clipPath><clipPath id="7224841777"><rect x="0" width="109" y="0" height="89"/></clipPath><clipPath id="a2dcfae03a"><rect x="0" width="112" y="0" height="139"/></clipPath></defs><g fill="#ffffff" fill-opacity="1"><g transform="translate(603.523349, 814.87491)"><g><path d="M 111.96875 -119.9375 L 107.796875 -100 L 73.09375 -100 L 51.921875 0 L 28.296875 0 L 49.46875 -100 L 14.9375 -100 L 19.109375 -119.9375 Z M 111.96875 -119.9375 "/></g></g></g><g fill="#ffffff" fill-opacity="1"><g transform="translate(689.16922, 814.87491)"><g><path d="M 5.984375 0 L 31.421875 -119.9375 L 77.109375 -119.9375 C 84.109375 -119.9375 90.125 -118.867188 95.15625 -116.734375 C 100.1875 -114.597656 104.015625 -111.519531 106.640625 -107.5 C 109.265625 -103.476562 110.578125 -98.679688 110.578125 -93.109375 C 110.578125 -90.429688 110.25 -87.5625 109.59375 -84.5 C 108.175781 -77.65625 104.960938 -71.9375 99.953125 -67.34375 C 94.953125 -62.75 88.894531 -59.9375 81.78125 -58.90625 L 81.375 -57.171875 C 84.925781 -55.484375 87.5625 -53.035156 89.28125 -49.828125 C 91.007812 -46.628906 92.226562 -41.941406 92.9375 -35.765625 L 94.421875 -23.375 L 97.375 0 L 73.5 0 L 73.09375 -3.359375 C 72.65625 -6.972656 72.117188 -11.484375 71.484375 -16.890625 C 70.859375 -22.304688 70.164062 -28.625 69.40625 -35.84375 C 68.96875 -39.457031 68.203125 -42.257812 67.109375 -44.25 C 66.015625 -46.25 64.398438 -47.695312 62.265625 -48.59375 C 60.128906 -49.5 57.203125 -49.953125 53.484375 -49.953125 L 40.28125 -49.953125 L 29.703125 0 Z M 65.875 -68.75 C 71.882812 -68.75 76.53125 -70.03125 79.8125 -72.59375 C 83.09375 -75.164062 85.28125 -79.023438 86.375 -84.171875 C 86.757812 -85.859375 86.953125 -87.5 86.953125 -89.09375 C 86.953125 -93.132812 85.679688 -96.148438 83.140625 -98.140625 C 80.597656 -100.140625 76.972656 -101.140625 72.265625 -101.140625 L 51.1875 -101.140625 L 44.296875 -68.75 Z M 65.875 -68.75 "/></g></g></g><g fill="#ffffff" fill-opacity="1"><g transform="translate(787.529933, 814.87491)"><g><path d="M 105.5 0 L 81.296875 0 L 78.09375 -27.640625 L 32.484375 -27.640625 L 17.796875 0 L -7.796875 0 L 58.734375 -119.9375 L 89.25 -119.9375 Z M 68.328125 -94.90625 L 43.15625 -47.578125 L 75.796875 -47.578125 L 70.390625 -94.90625 Z M 68.328125 -94.90625 "/></g></g></g><g fill="#ffffff" fill-opacity="1"><g transform="translate(887.941416, 814.87491)"><g><path d="M 57.171875 1.71875 C 48.097656 1.71875 40.085938 -0.015625 33.140625 -3.484375 C 26.191406 -6.960938 20.765625 -12.128906 16.859375 -18.984375 C 12.953125 -25.847656 11 -34.203125 11 -44.046875 C 11 -49.734375 11.679688 -55.832031 13.046875 -62.34375 C 15.773438 -75.25 20.328125 -86.128906 26.703125 -94.984375 C 33.078125 -103.847656 40.925781 -110.507812 50.25 -114.96875 C 59.570312 -119.425781 70.082031 -121.65625 81.78125 -121.65625 C 92.9375 -121.65625 102.015625 -119.316406 109.015625 -114.640625 C 116.015625 -109.960938 120.554688 -103.164062 122.640625 -94.25 L 104.015625 -84.25 L 102.046875 -84.328125 C 100.242188 -90.066406 97.382812 -94.316406 93.46875 -97.078125 C 89.5625 -99.847656 84.21875 -101.234375 77.4375 -101.234375 C 67.488281 -101.234375 59.023438 -97.976562 52.046875 -91.46875 C 45.078125 -84.957031 40.144531 -74.785156 37.25 -60.953125 C 35.9375 -54.828125 35.28125 -49.410156 35.28125 -44.703125 C 35.28125 -35.734375 37.4375 -29.171875 41.75 -25.015625 C 46.070312 -20.859375 52.117188 -18.78125 59.890625 -18.78125 C 66.503906 -18.78125 72.445312 -20.640625 77.71875 -24.359375 C 83 -28.078125 87.71875 -33.820312 91.875 -41.59375 L 93.921875 -41.59375 L 110.984375 -32.40625 C 107.484375 -24.257812 103.269531 -17.695312 98.34375 -12.71875 C 93.425781 -7.738281 87.617188 -4.085938 80.921875 -1.765625 C 74.222656 0.554688 66.304688 1.71875 57.171875 1.71875 Z M 57.171875 1.71875 "/></g></g></g><g fill="#ffffff" fill-opacity="1"><g transform="translate(991.798234, 814.87491)"><g><path d="M 111.078125 -119.9375 L 106.890625 -100.078125 L 50.9375 -100.078125 L 44.953125 -72.03125 L 93.84375 -72.03125 L 89.75 -52.671875 L 40.859375 -52.671875 L 33.875 -19.859375 L 91.140625 -19.859375 L 86.953125 0 L 5.984375 0 L 31.421875 -119.9375 Z M 111.078125 -119.9375 "/></g></g></g><g transform="matrix(1, 0, 0, 1, 411, 684)"><g clip-path="url(#a2dcfae03a)"><g clip-path="url(#ceb56767a8)"><g transform="matrix(1, 0, 0, 1, -0.000000000000056843, 88)"><g clip-path="url(#5bd3263d4a)"><g clip-path="url(#280a48aed6)"><path fill="#ffffff" d="M 0.96875 50.066406 L 0.96875 0.117188 L 52.480469 0.117188 L 52.480469 50.066406 Z M 0.96875 50.066406 " fill-opacity="1" fill-rule="nonzero"/></g></g></g></g><g clip-path="url(#387e93292e)"><g clip-path="url(#7bfb35b46e)"><g transform="matrix(1, 0, 0, 1, 3, 0.000000000000113687)"><g clip-path="url(#7224841777)"><g clip-path="url(#a593aac951)"><g clip-path="url(#fa3788e395)"><path fill="#ffffff" d="M 0.800781 0.878906 L 108.828125 0.878906 L 108.828125 88.117188 L 0.800781 88.117188 Z M 0.800781 0.878906 " fill-opacity="1" fill-rule="nonzero"/></g></g></g></g></g></g></g></g><path stroke-linecap="butt" transform="matrix(0, -0.75, 0.75, 0, 568.6538, 822.063365)" fill="none" stroke-linejoin="miter" d="M 0.00115359 6.498058 L 182.917836 6.498058 " stroke="#ffffff" stroke-width="13" stroke-opacity="1" stroke-miterlimit="4"/></svg>